<svg width="37" height="19" viewBox="0 0 37 19" fill="none" xmlns="http://www.w3.org/2000/svg">
<path d="M30.8966 3.67212L31.4196 3.7077L31.9828 3.88561L32.4253 4.17027L32.7069 4.41935L33.0288 4.95308L33.5518 6.48312L34.1552 8.26223L34.7184 9.9346L34.9598 10.6107L35.523 12.283L35.9656 13.5996L36.1265 14.3112V15.1652L35.9656 15.8768L35.7242 16.4106L35.4426 16.9087L35.0805 17.3357L34.5978 17.7983L34.115 18.1185L33.5518 18.4032L32.9483 18.6167L32.3046 18.759L32.023 18.7946H31.0173L30.1725 18.6523L29.4081 18.3676L28.9253 18.1185L28.523 17.8339L28.1207 17.5136L27.6782 17.0155L27.3564 16.5173L27.115 15.9836L26.3506 13.7419L25.546 11.3223L25.4656 11.1088V10.8953L25.1437 11.1444L21.1609 14.667L20.5977 15.0229L19.9943 15.3075L19.1897 15.521L18.3851 15.6278H17.7816L16.9368 15.521L16.2127 15.3075L15.569 15.0229L14.9253 14.5959L10.7414 10.8953L10.6609 10.8597L10.5805 11.2511L10.0977 12.71L9.81611 13.5284L9.25289 15.2008L8.97128 16.0192L8.68967 16.5885L8.44829 16.9799L8.04599 17.4425L7.56323 17.8695L6.91955 18.2609L6.15518 18.5811L5.35058 18.759L5.02874 18.7946H4.10345L3.29886 18.6523L2.8161 18.5099L2.17242 18.2253L1.72989 17.9406L1.32759 17.6204L0.965519 17.2646L0.563219 16.7308L0.28161 16.1615L0.0804599 15.5566L0 15.1652V14.2401L0.16092 13.5284L0.603449 12.2119L1.12644 10.6818L1.64943 9.11621L1.97127 8.19107L2.53449 6.5187L2.93679 5.34449L3.25863 4.81075L3.66092 4.41935L4.10345 4.17027L4.42529 4.02794L4.94828 3.9212H5.59196L6.15518 4.02794L6.7184 4.27702L7.20116 4.66842L16.3334 12.7456L16.7357 13.0658L17.2989 13.3149L17.5805 13.3861L17.9023 13.4217H18.3449L18.7472 13.3505L19.2299 13.1726L19.5518 12.9591L19.9138 12.6389L20.1954 12.4254L20.4368 12.1763L20.638 12.034L20.8391 11.8205L21.1609 11.5714L21.4426 11.2867L21.7644 11.0377L22.1667 10.6818L22.3276 10.5039L22.569 10.326L22.7701 10.1481L23.2127 9.72111L23.4943 9.50761L23.7759 9.22296L24.3793 8.68922L24.7012 8.44015L25.5862 7.65734L25.8679 7.37268L26.5115 6.80336L26.7127 6.66103L26.9943 6.37637L27.6782 5.77147L27.9598 5.48682L29.5288 4.09911L29.9713 3.85003L30.4943 3.7077L30.8966 3.67212Z" fill="url(#paint0_linear_2072_5034)"/>
<path d="M8.26938 0H9.27321L10.0763 0.142274L10.7589 0.355686L11.4013 0.675803L11.7627 0.924783L12.2445 1.31604L16.3803 4.9796L16.7015 5.22858L18.2675 6.61575L18.5485 6.40234L20.757 4.44607L21.0782 4.19709L21.4396 3.84141L23.9692 1.60059L24.2904 1.35161L24.7723 0.924783L25.4147 0.533529L25.9769 0.284549L26.5791 0.106706L27.2617 0H28.3459L29.0285 0.106706L29.7111 0.284549L30.3937 0.569097L30.9558 0.924783L31.4377 1.31604L31.799 1.70729L31.9596 1.9207V2.02741L31.7589 1.95627L30.996 1.60059L30.2732 1.42274L29.9922 1.38717H29.1891L28.5466 1.49388L27.864 1.70729L27.2216 2.02741L26.6595 2.38309L26.1375 2.80992L25.9769 2.98776L25.6556 3.23674L25.2541 3.62799H25.1738V3.69913L24.8927 3.91254L23.9692 4.73062L23.6881 5.01517L23.2866 5.33529L23.2063 5.44199H23.126V5.51313H23.0457L22.9654 5.6554L22.5638 5.97552L21.9214 6.54462L21.6403 6.82917L21.2388 7.14928L18.7895 9.31897L18.5887 9.42567L18.4281 9.46124H18.1069L17.7856 9.31897L17.4644 9.06999L17.2637 8.85657L14.6537 6.54462L14.3325 6.29564L14.1317 6.08223L13.9711 5.97552V5.90438H13.8908L13.6097 5.61983L13.409 5.44199L13.2082 5.29972L13.0074 5.12187L12.5658 4.69505L12.0438 4.23266L11.9635 4.19709V4.12595L11.8028 4.05482L10.9998 3.34345L10.7187 3.0589L10.277 2.66764L9.95581 2.41866L9.35351 2.02741L8.95198 1.814L8.30954 1.56502L7.66709 1.42274L7.42617 1.38717H6.54281L5.94051 1.49388L5.29806 1.70729L4.73592 1.99184H4.53516L4.61546 1.88513H4.69577L4.77607 1.74286L5.01699 1.45831L5.45867 1.03149L6.02082 0.675803L6.42235 0.462391L6.98449 0.24898L7.54663 0.106706L8.26938 0Z" fill="white"/>
<defs>
<linearGradient id="paint0_linear_2072_5034" x1="18.0632" y1="3.67212" x2="18.0632" y2="18.7946" gradientUnits="userSpaceOnUse">
<stop stop-color="#F54C20"/>
<stop offset="1" stop-color="#FDA025"/>
</linearGradient>
</defs>
</svg>
