<svg width="77" height="19" viewBox="0 0 77 19" fill="none" xmlns="http://www.w3.org/2000/svg">
<path d="M28.0874 3.67212L28.5489 3.7077L29.0458 3.88561L29.4362 4.17027L29.6847 4.41935L29.9686 4.95308L30.43 6.48312L30.9624 8.26223L31.4594 9.9346L31.6723 10.6107L32.1692 12.283L32.5597 13.5996L32.7016 14.3112V15.1652L32.5597 15.8768L32.3467 16.4106L32.0982 16.9087L31.7788 17.3357L31.3529 17.7983L30.9269 18.1185L30.43 18.4032L29.8976 18.6167L29.3297 18.759L29.0813 18.7946H28.1939L27.4485 18.6523L26.7742 18.3676L26.3482 18.1185L25.9933 17.8339L25.6384 17.5136L25.2479 17.0155L24.964 16.5173L24.751 15.9836L24.0766 13.7419L23.3667 11.3223L23.2958 11.1088V10.8953L23.0118 11.1444L19.4979 14.667L19.001 15.0229L18.4686 15.3075L17.7587 15.521L17.0488 15.6278H16.5164L15.7711 15.521L15.1322 15.3075L14.5643 15.0229L13.9964 14.5959L10.305 10.8953L10.234 10.8597L10.163 11.2511L9.73709 12.71L9.48863 13.5284L8.99172 15.2008L8.74326 16.0192L8.4948 16.5885L8.28184 16.9799L7.9269 17.4425L7.50098 17.8695L6.93307 18.2609L6.25869 18.5811L5.54881 18.759L5.26486 18.7946H4.4485L3.73862 18.6523L3.3127 18.5099L2.74479 18.2253L2.35436 17.9406L1.99942 17.6204L1.67998 17.2646L1.32504 16.7308L1.07658 16.1615L0.899113 15.5566L0.828125 15.1652V14.2401L0.970101 13.5284L1.36053 12.2119L1.82195 10.6818L2.28337 9.11621L2.56733 8.19107L3.06424 6.5187L3.41918 5.34449L3.70313 4.81075L4.05807 4.41935L4.4485 4.17027L4.73245 4.02794L5.19387 3.9212H5.76178L6.25869 4.02794L6.7556 4.27702L7.18153 4.66842L15.2386 12.7456L15.5936 13.0658L16.0905 13.3149L16.339 13.3861L16.6229 13.4217H17.0133L17.3683 13.3505L17.7942 13.1726L18.0782 12.9591L18.3976 12.6389L18.6461 12.4254L18.859 12.1763L19.0365 12.034L19.214 11.8205L19.4979 11.5714L19.7464 11.2867L20.0303 11.0377L20.3853 10.6818L20.5272 10.5039L20.7402 10.326L20.9177 10.1481L21.3081 9.72111L21.5566 9.50761L21.805 9.22296L22.3374 8.68922L22.6214 8.44015L23.4022 7.65734L23.6507 7.37268L24.2186 6.80336L24.3961 6.66103L24.6445 6.37637L25.2479 5.77147L25.4964 5.48682L26.8806 4.09911L27.2711 3.85003L27.7325 3.7077L28.0874 3.67212Z" fill="url(#paint0_linear_1851_13814)"/>
<path d="M8.12274 0H9.00839L9.71691 0.142274L10.3192 0.355686L10.886 0.675803L11.2048 0.924783L11.6299 1.31604L15.2788 4.9796L15.5622 5.22858L16.9438 6.61575L17.1918 6.40234L19.1402 4.44607L19.4236 4.19709L19.7425 3.84141L21.9743 1.60059L22.2577 1.35161L22.6828 0.924783L23.2496 0.533529L23.7456 0.284549L24.277 0.106706L24.8792 0H25.8357L26.438 0.106706L27.0402 0.284549L27.6425 0.569097L28.1384 0.924783L28.5635 1.31604L28.8824 1.70729L29.0241 1.9207V2.02741L28.847 1.95627L28.1739 1.60059L27.5362 1.42274L27.2882 1.38717H26.5797L26.0129 1.49388L25.4106 1.70729L24.8438 2.02741L24.3478 2.38309L23.8873 2.80992L23.7456 2.98776L23.4622 3.23674L23.1079 3.62799H23.0371V3.69913L22.7891 3.91254L21.9743 4.73062L21.7263 5.01517L21.3721 5.33529L21.3012 5.44199H21.2304V5.51313H21.1595L21.0887 5.6554L20.7344 5.97552L20.1676 6.54462L19.9196 6.82917L19.5653 7.14928L17.4044 9.31897L17.2272 9.42567L17.0855 9.46124H16.8021L16.5187 9.31897L16.2353 9.06999L16.0582 8.85657L13.7555 6.54462L13.4721 6.29564L13.2949 6.08223L13.1532 5.97552V5.90438H13.0824L12.8344 5.61983L12.6573 5.44199L12.4801 5.29972L12.303 5.12187L11.9133 4.69505L11.4528 4.23266L11.3819 4.19709V4.12595L11.2402 4.05482L10.5317 3.34345L10.2837 3.0589L9.89404 2.66764L9.61063 2.41866L9.07924 2.02741L8.72498 1.814L8.15817 1.56502L7.59135 1.42274L7.3788 1.38717H6.59942L6.06803 1.49388L5.50122 1.70729L5.00525 1.99184H4.82812L4.89898 1.88513H4.96983L5.04068 1.74286L5.25324 1.45831L5.64292 1.03149L6.13889 0.675803L6.49315 0.462391L6.98911 0.24898L7.48507 0.106706L8.12274 0Z" fill="white"/>
<path d="M59.6894 2.276C60.3925 2.276 60.9818 2.40621 61.4571 2.66663C61.8255 2.86851 62.1424 3.13737 62.4091 3.47229L62.5215 2.47131H65.0704V12.6861C65.0704 13.6497 64.8555 14.4667 64.4258 15.1373C64.0027 15.8144 63.4102 16.3255 62.6485 16.6705C61.8868 17.0221 61.0013 17.1979 59.9921 17.1979C59.5494 17.1979 59.0808 17.1393 58.586 17.0221C58.0977 16.9049 57.629 16.7226 57.1796 16.4752C56.7369 16.2278 56.3659 15.9153 56.0665 15.5377L57.3067 13.8775C57.6322 14.2551 58.0097 14.5481 58.4394 14.7565C58.8692 14.9713 59.3444 15.0787 59.8652 15.0787C60.373 15.0787 60.8027 14.9843 61.1542 14.7955C61.5058 14.6132 61.776 14.343 61.9648 13.985C62.1537 13.6334 62.2481 13.207 62.2481 12.7057V12.1227C61.9881 12.4154 61.6894 12.6562 61.3496 12.8424C60.8808 13.1028 60.3209 13.233 59.67 13.233C59.0189 13.233 58.4296 13.0995 57.9023 12.8326C57.3815 12.5657 56.9355 12.1913 56.5644 11.7096C56.1933 11.2278 55.9069 10.6614 55.705 10.0104C55.5098 9.35933 55.4121 8.6497 55.4121 7.88147V7.67639C55.4121 6.8691 55.5098 6.13668 55.705 5.47913C55.9069 4.81506 56.1901 4.2454 56.5546 3.77014C56.9257 3.29488 57.375 2.92704 57.9023 2.66663C58.4296 2.40621 59.0253 2.276 59.6894 2.276ZM38.2051 2.276C39.0254 2.276 39.7546 2.41272 40.3926 2.68616C41.0306 2.95959 41.5319 3.36975 41.8965 3.91663C42.2676 4.4635 42.4531 5.1471 42.4531 5.96741V10.4889C42.4531 11.0683 42.4889 11.5436 42.5605 11.9147C42.6321 12.2792 42.7364 12.5982 42.873 12.8717V13.0377H40.0312C39.903 12.769 39.8044 12.4372 39.7334 12.0426C39.6331 12.1589 39.5249 12.2732 39.4062 12.3834C39.1328 12.6308 38.804 12.8359 38.4199 12.9986C38.0358 13.1549 37.5801 13.233 37.0527 13.233C36.3822 13.233 35.7734 13.0995 35.2266 12.8326C34.6862 12.5592 34.2565 12.1848 33.9375 11.7096C33.625 11.2278 33.4688 10.681 33.4688 10.069C33.4688 9.51558 33.5729 9.02405 33.7812 8.59436C33.9896 8.16467 34.2956 7.80334 34.6992 7.51038C35.1094 7.2109 35.6204 6.98629 36.2324 6.83655C36.8444 6.6803 37.554 6.60217 38.3613 6.60217H39.6211V5.94788C39.6211 5.60933 39.5658 5.31962 39.4551 5.07874C39.3444 4.83134 39.1719 4.63928 38.9375 4.50256C38.7096 4.36584 38.4134 4.29749 38.0488 4.29749C37.7363 4.29749 37.4661 4.35282 37.2383 4.4635C37.0104 4.56767 36.8346 4.72066 36.7109 4.92249C36.5872 5.1178 36.5254 5.34892 36.5254 5.61584H33.7129C33.7129 5.16663 33.8171 4.74019 34.0254 4.33655C34.2337 3.9329 34.5365 3.57808 34.9336 3.2721C35.3307 2.95959 35.8027 2.71545 36.3496 2.53967C36.903 2.36389 37.5215 2.276 38.2051 2.276ZM71.7989 2.276C72.5997 2.276 73.3125 2.41272 73.9375 2.68616C74.5625 2.95308 75.0866 3.32743 75.5098 3.8092C75.9394 4.29098 76.2649 4.86064 76.4864 5.51819C76.7076 6.16923 76.8184 6.88212 76.8184 7.65686V7.86194C76.8184 8.63017 76.7076 9.34306 76.4864 10.0006C76.2649 10.6517 75.9394 11.2213 75.5098 11.7096C75.0866 12.1913 74.5658 12.5657 73.9473 12.8326C73.3288 13.0995 72.6192 13.233 71.8184 13.233C71.0176 13.233 70.3046 13.0995 69.6796 12.8326C69.0611 12.5657 68.5371 12.1913 68.1074 11.7096C67.6842 11.2213 67.3619 10.6517 67.1407 10.0006C66.9193 9.34306 66.8086 8.63017 66.8086 7.86194V7.65686C66.8086 6.88212 66.9193 6.16923 67.1407 5.51819C67.3619 4.86064 67.6842 4.29098 68.1074 3.8092C68.5305 3.32743 69.0514 2.95308 69.6699 2.68616C70.2884 2.41272 70.9981 2.276 71.7989 2.276ZM50.3535 2.276C50.8484 2.276 51.3008 2.34762 51.711 2.49084C52.1211 2.63407 52.4727 2.86194 52.7656 3.17444C53.0651 3.48694 53.2929 3.90035 53.4492 4.41467C53.6119 4.929 53.6933 5.55725 53.6933 6.29944V13.0377H50.8613V6.28967C50.8613 5.82092 50.7962 5.45634 50.666 5.19592C50.5359 4.93551 50.3438 4.75321 50.0898 4.64905C49.8424 4.53837 49.5364 4.48303 49.1719 4.48303C48.7943 4.48303 48.4654 4.5579 48.1855 4.70764C47.9121 4.85738 47.6842 5.06571 47.502 5.33264C47.4567 5.39958 47.4145 5.46964 47.375 5.5426V13.0377H44.5625V2.47131H47.1993L47.2969 3.73596C47.3162 3.71132 47.3356 3.68681 47.3554 3.66272C47.72 3.2135 48.1529 2.8717 48.6542 2.63733C49.1621 2.39644 49.7285 2.276 50.3535 2.276ZM60.6973 3.90002C60.5646 3.93013 60.4366 4.02091 60.3554 4.14026C60.3043 4.21556 60.3122 4.27159 60.3204 4.31799C60.2358 4.23023 60.0812 4.15008 59.8526 4.151C59.5137 4.15254 59.0877 4.17347 58.4062 4.87854C57.7845 5.52257 57.5807 6.60494 57.4405 7.09631C57.3486 7.41606 57.1768 7.78373 56.9834 8.11877C56.8222 8.39731 56.6816 8.47527 56.7735 8.57874C56.8347 8.64788 57.1255 8.37792 57.3116 8.23499C57.4025 8.16518 57.7059 7.91528 58.084 7.57385C58.0832 7.60813 58.083 7.6423 58.083 7.67639C58.083 7.72358 58.0821 7.74963 58.0821 7.74963C58.0821 7.74963 58.083 7.74839 58.0849 7.74768C58.1029 8.74732 58.4675 9.65256 58.5401 10.1305C58.7007 11.185 58.4078 11.3095 58.5811 11.5787C58.7743 11.8766 60.0168 12.5147 61.7784 11.1295C62.6839 10.4172 63.2127 9.35704 63.3955 8.28186C63.5784 7.20674 63.3888 6.24614 62.996 5.5885C62.6301 4.9761 61.9533 4.37282 61.0762 4.35901C61.0301 4.29445 60.916 4.24245 60.8946 4.15295C60.8657 4.03433 60.8556 3.86393 60.6973 3.90002ZM38.7637 7.30139C38.1452 7.17802 37.4257 7.46986 37.081 7.57385C36.8565 7.6412 36.573 7.67905 36.3008 7.69202C36.0742 7.70251 35.9746 7.6488 35.9482 7.7428C35.9311 7.80539 36.202 7.87444 36.3574 7.9303C36.4335 7.95762 36.6964 8.04237 37.042 8.13635C37.032 8.14215 37.0233 8.14872 37.0146 8.15393C37.0022 8.1617 36.9898 8.16944 36.9775 8.17737C36.9522 8.19373 36.9385 8.20276 36.9385 8.20276L36.9404 8.20374C36.3548 8.59496 35.9568 9.15543 35.7012 9.38049C35.1375 9.87702 34.952 9.75078 34.8584 9.95569C34.7551 10.1829 34.8491 11.1642 36.3418 11.6813C37.1087 11.9468 37.9386 11.8562 38.6455 11.5553C39.3525 11.2543 39.8505 10.7759 40.0908 10.2926C40.3143 9.84271 40.411 9.214 40.0859 8.68909C40.1084 8.63756 40.0958 8.54833 40.1416 8.50061C40.2009 8.43834 40.2974 8.3678 40.2158 8.28772C40.1475 8.22048 40.0451 8.17804 39.9434 8.17542C39.8798 8.1738 39.8495 8.19991 39.8252 8.22229C39.8448 8.13871 39.8327 8.01643 39.7451 7.88147C39.6152 7.68119 39.4408 7.43683 38.7637 7.30139ZM71.7657 3.90002C71.6331 3.93013 71.505 4.02091 71.4239 4.14026C71.3727 4.21556 71.3806 4.27159 71.3886 4.31799C71.3041 4.23023 71.1495 4.15008 70.9208 4.151C70.5819 4.15254 70.1561 4.17347 69.4747 4.87854C68.8529 5.52257 68.649 6.60494 68.5088 7.09631C68.417 7.41606 68.245 7.78373 68.0518 8.11877C67.8905 8.39731 67.7499 8.47527 67.8418 8.57874C67.903 8.64788 68.1937 8.37792 68.3798 8.23499C68.4707 8.16518 68.7742 7.91528 69.1524 7.57385C69.1516 7.60813 69.1513 7.6423 69.1513 7.67639C69.1513 7.72358 69.1503 7.74963 69.1503 7.74963C69.1503 7.74963 69.1515 7.74839 69.1534 7.74768C69.1712 8.74732 69.5357 9.65256 69.6083 10.1305C69.7691 11.185 70.9561 11.6168 70.9561 11.6168C70.9638 11.6254 71.4872 12.1989 72.8466 11.1295C73.7521 10.4172 74.281 9.35704 74.4638 8.28186C74.6466 7.20674 74.4572 6.24614 74.0644 5.5885C73.6984 4.9761 73.0215 4.37282 72.1446 4.35901C72.0984 4.29445 71.9844 4.24245 71.9628 4.15295C71.934 4.03433 71.924 3.86393 71.7657 3.90002Z" fill="white"/>
<g clip-path="url(#clip0_1851_13814)">
<path d="M36.9382 8.16487C36.9382 8.16487 37.4597 8.56516 38.3734 8.70349C39.1129 8.81551 39.472 8.54637 39.472 8.54637C39.472 8.54637 39.775 8.69795 39.9992 8.69194C40.089 8.68947 40.1168 8.65064 40.0345 8.52801C39.9103 8.34224 39.4318 7.94425 38.6259 7.81816C37.6171 7.66121 36.9382 8.16487 36.9382 8.16487Z" fill="#DC0D27"/>
<path d="M35.9122 9.61536C35.9793 9.79327 36.3224 9.65734 36.5757 9.50766C36.9413 9.29143 37.1359 9.06291 37.2455 8.94923C37.355 8.83555 37.5262 8.57658 37.3152 8.48283C37.0955 8.38554 36.9701 8.63412 36.8096 8.80236C36.6492 8.9706 36.4344 9.16567 36.2698 9.28729C36.0949 9.41666 35.8723 9.50987 35.9122 9.61536Z" fill="#FFD59F"/>
<path d="M39.6273 8.27873C39.5726 8.3902 39.6715 8.49818 39.7396 8.57491C39.8076 8.65165 39.9852 8.7136 40.0549 8.68598C40.1246 8.65877 40.0828 8.52502 40.1426 8.46282C40.2019 8.40053 40.2989 8.32984 40.2172 8.24972C40.1489 8.18248 40.0463 8.14061 39.9446 8.13799C39.8429 8.13537 39.8275 8.2043 39.7832 8.21418C39.7379 8.22427 39.646 8.24041 39.6273 8.27873Z" fill="#6D4C41"/>
<path d="M39.5238 8.29366C39.4064 8.3138 39.0381 8.47666 38.2849 8.36787C37.4542 8.24804 36.5133 7.94879 36.3577 7.89288C36.2021 7.83697 35.931 7.76755 35.9487 7.70491C35.975 7.61092 36.0746 7.6646 36.3011 7.65411C36.5735 7.64114 36.8572 7.6032 37.0818 7.53577C37.4265 7.43176 38.1458 7.14048 38.7644 7.26399C39.4418 7.39948 39.6161 7.64353 39.746 7.84386C39.876 8.04419 39.8411 8.21691 39.7802 8.27596C39.7198 8.3351 39.6668 8.26954 39.5238 8.29366Z" fill="#518E30"/>
<path d="M37.4054 7.79228C37.4172 7.81398 37.7139 7.8894 37.8816 7.92053C38.2644 7.99185 38.5859 7.96379 38.969 8.00653C39.3522 8.04926 39.6705 8.15931 39.6859 8.14852C39.7139 8.12887 39.547 7.7892 38.7776 7.70347C38.4942 7.67208 38.1095 7.72499 37.8439 7.7623C37.6742 7.78727 37.3942 7.77157 37.4054 7.79228Z" fill="#366918"/>
</g>
<g clip-path="url(#clip1_1851_13814)">
<path d="M58.0828 7.7115C58.0828 7.7115 58.9609 7.39574 59.8269 6.41073C60.528 5.61353 60.482 4.97816 60.482 4.97816C60.482 4.97816 60.8954 4.73263 61.0603 4.46022C61.1262 4.35109 61.1011 4.28817 60.8916 4.29238C60.5745 4.29816 59.7321 4.56432 58.9633 5.43011C58.0021 6.51436 58.0828 7.7115 58.0828 7.7115Z" fill="#DC0D27"/>
<path d="M59.0271 10.0505C59.2911 10.1068 59.392 9.59271 59.4075 9.1754C59.4297 8.57297 59.3061 8.16521 59.2544 7.9472C59.2026 7.72919 59.0247 7.32604 58.7509 7.50616C58.4662 7.69389 58.6668 8.0344 58.7446 8.35506C58.8225 8.67572 58.8907 9.08179 58.9097 9.3717C58.93 9.67976 58.8706 10.0171 59.0271 10.0505Z" fill="#FFD59F"/>
<path d="M60.2802 4.58911C60.3713 4.74005 60.5762 4.70471 60.72 4.68229C60.8639 4.65987 61.0741 4.4953 61.0946 4.39086C61.1155 4.28684 60.9237 4.2341 60.8953 4.11503C60.8664 3.99641 60.8564 3.8263 60.6981 3.8624C60.5654 3.89243 60.4367 3.98281 60.3555 4.10225C60.2744 4.2217 60.3449 4.29304 60.3227 4.35354C60.3 4.41533 60.2488 4.53743 60.2802 4.58911Z" fill="#6D4C41"/>
<path d="M60.22 4.72342C60.154 4.8791 60.0659 5.44386 59.3583 6.25993C58.578 7.16 57.4988 8.05416 57.3127 8.19708C57.1266 8.34 56.8358 8.61046 56.7745 8.5413C56.6825 8.43779 56.8229 8.36007 56.9842 8.08146C57.1777 7.74619 57.35 7.3783 57.4417 7.05835C57.5819 6.56689 57.7858 5.48452 58.4078 4.84053C59.0892 4.13546 59.5143 4.11455 59.8533 4.11301C60.1922 4.11147 60.3717 4.28568 60.3955 4.40365C60.4198 4.52118 60.3008 4.53419 60.22 4.72342Z" fill="#518E30"/>
<path d="M57.9941 6.86959C58.0291 6.87205 58.3468 6.57561 58.5126 6.3992C58.8914 5.99677 59.1044 5.59137 59.4494 5.16654C59.7944 4.74171 60.1699 4.44601 60.1688 4.4194C60.1669 4.37083 59.6332 4.30958 58.9406 5.16273C58.6858 5.47708 58.4538 5.97712 58.2947 6.32292C58.1944 6.54463 57.9608 6.86705 57.9941 6.86959Z" fill="#366918"/>
</g>
<g clip-path="url(#clip2_1851_13814)">
<path d="M69.1512 7.7115C69.1512 7.7115 70.0293 7.39574 70.8953 6.41073C71.5963 5.61353 71.5504 4.97816 71.5504 4.97816C71.5504 4.97816 71.9638 4.73263 72.1286 4.46022C72.1946 4.35109 72.1695 4.28817 71.9599 4.29238C71.6428 4.29816 70.8005 4.56432 70.0317 5.43011C69.0705 6.51436 69.1512 7.7115 69.1512 7.7115Z" fill="#DC0D27"/>
<path d="M70.0955 10.0505C70.3594 10.1068 70.4603 9.59271 70.4759 9.1754C70.4981 8.57297 70.3745 8.16521 70.3227 7.9472C70.271 7.72919 70.0931 7.32604 69.8192 7.50616C69.5345 7.69389 69.7351 8.0344 69.813 8.35506C69.8908 8.67572 69.9591 9.08179 69.978 9.3717C69.9984 9.67976 69.939 10.0171 70.0955 10.0505Z" fill="#FFD59F"/>
<path d="M71.3486 4.58911C71.4397 4.74005 71.6445 4.70471 71.7884 4.68229C71.9322 4.65987 72.1425 4.4953 72.1629 4.39086C72.1838 4.28684 71.9921 4.2341 71.9637 4.11503C71.9348 3.99641 71.9248 3.8263 71.7664 3.8624C71.6337 3.89243 71.505 3.98281 71.4239 4.10225C71.3428 4.2217 71.4132 4.29304 71.391 4.35354C71.3684 4.41533 71.3171 4.53743 71.3486 4.58911Z" fill="#6D4C41"/>
<path d="M71.2883 4.72342C71.2223 4.8791 71.1343 5.44386 70.4266 6.25993C69.6463 7.16 68.5672 8.05416 68.3811 8.19708C68.195 8.34 67.9041 8.61046 67.8429 8.5413C67.7508 8.43779 67.8913 8.36007 68.0526 8.08146C68.246 7.74619 68.4183 7.3783 68.5101 7.05835C68.6503 6.56689 68.8541 5.48452 69.4761 4.84053C70.1576 4.13546 70.5827 4.11455 70.9216 4.11301C71.2606 4.11147 71.44 4.28568 71.4639 4.40365C71.4881 4.52118 71.3692 4.53419 71.2883 4.72342Z" fill="#518E30"/>
<path d="M69.0625 6.86959C69.0975 6.87205 69.4151 6.57561 69.5809 6.3992C69.9597 5.99677 70.1728 5.59137 70.5178 5.16654C70.8627 4.74171 71.2383 4.44601 71.2372 4.4194C71.2352 4.37083 70.7016 4.30958 70.009 5.16273C69.7541 5.47708 69.5222 5.97712 69.363 6.32292C69.2627 6.54463 69.0291 6.86705 69.0625 6.86959Z" fill="#366918"/>
</g>
<defs>
<linearGradient id="paint0_linear_1851_13814" x1="16.7649" y1="3.67212" x2="16.7649" y2="18.7946" gradientUnits="userSpaceOnUse">
<stop stop-color="#F54C20"/>
<stop offset="1" stop-color="#FDA025"/>
</linearGradient>
<clipPath id="clip0_1851_13814">
<rect width="5.61006" height="5.19678" fill="white" transform="translate(35.459 6.33301) rotate(12.2869)"/>
</clipPath>
<clipPath id="clip1_1851_13814">
<rect width="7.9627" height="7.37611" fill="white" transform="translate(54.7598 8.07385) rotate(-45)"/>
</clipPath>
<clipPath id="clip2_1851_13814">
<rect width="7.9627" height="7.37611" fill="white" transform="translate(65.8281 8.07385) rotate(-45)"/>
</clipPath>
</defs>
</svg>
